[Header]
FileType HTR
DataType HTRS
FileVersion 1
NumSegments 22
NumFrames 8
DataFrameRate 24
EulerRotationOrder ZYX
CalibrationUnits mm
RotationUnits Degrees
GlobalAxisofGravity Y
BoneLengthAxis Y
ScaleFactor 1.0
[SegmentNames&Hierarchy]
reference	GLOBAL
Hips	reference
Spine	Hips
Spine1	Spine
Neck	Spine1
Head	Neck
LeftShoulder	Spine1
LeftArm	LeftShoulder
LeftForeArm	LeftArm
LeftHand	LeftForeArm
RightShoulder	Spine1
RightArm	RightShoulder
RightForeArm	RightArm
RightHand	RightForeArm
LeftUpLeg	Hips
LeftLeg	LeftUpLeg
LeftFoot	LeftLeg
LeftToeBase	LeftFoot
RightUpLeg	Hips
RightLeg	RightUpLeg
RightFoot	RightLeg
RightToeBase	RightFoot
[BasePosition]
reference	0	0	0	0	0	0	1
Hips	0	0	0	0	0	0	1
Spine	0	0	0	-0	-90	0	1
Spine1	0	0	0	0	0	0	1
Neck	0	0	0	82.64767223	-82.64767223	-90	1
Head	0	0	0	-0	-90	0	1
LeftShoulder	0	0	0	0	0	0	1
LeftArm	0	0	0	0	0	0	1
LeftForeArm	0	0	0	0	0	0	1
LeftHand	0	0	0	0	0	0	1
RightShoulder	0	0	0	0	-0	180	1
RightArm	0	0	0	0	-0	180	1
RightForeArm	0	0	0	0	-0	180	1
RightHand	0	0	0	0	-0	180	1
LeftUpLeg	0	0	0	-0	90	0	1
LeftLeg	0	0	0	-0	90	0	1
LeftFoot	0	0	0	-23.42853957	23.42853957	-90	1
LeftToeBase	0	0	0	0	-0	-90	1
RightUpLeg	0	0	0	-0	90	0	1
RightLeg	0	0	0	-0	90	0	1
RightFoot	0	0	0	-23.42853957	23.42853957	-90	1
RightToeBase	0	0	0	0	-0	-90	1
[reference]
39	0	0	0	0	-0	0	1.0
40	0	0	0	0	-0	0	1.0
41	0	0	0	0	-0	0	1.0
42	0	0	0	0	-0	0	1.0
43	0	0	0	0	-0	0	1.0
44	0	0	0	0	-0	0	1.0
45	0	0	0	0	-0	0	1.0
46	0	0	0	0	-0	0	1.0
[Hips]
39	-0.04642281681	1.296579957	8.352519989	9.91815567	4.611467361	-34.65142822	1.0
40	-0.07591765374	1.296579957	8.352519989	9.826787949	4.306575775	-34.34061813	1.0
41	-0.1225637496	1.296579957	8.352519989	9.261334419	4.005989075	-37.33747101	1.0
42	-0.1710085273	1.296579957	8.352519989	8.147794724	3.803942442	-38.45275879	1.0
43	-0.2000914216	1.296579957	8.352519989	7.500082016	3.621656418	-40.35250092	1.0
44	-0.2112600058	1.296579957	8.352519989	7.230113506	3.492139816	-41.50617218	1.0
45	-0.2112600058	1.296579957	8.352519989	6.97688055	3.471362591	-42.12269974	1.0
46	-0.2112600058	1.296579957	8.352519989	6.490626812	3.520629406	-43.44786835	1.0
[Spine]
39	0	0	0.7457100153	125.4952316	88.88523865	144.9277954	1.0
40	0	0	0.7457100153	140.0730896	89.19007874	159.8949738	1.0
41	0	0	0.7457100153	103.3843155	87.91474915	123.5422974	1.0
42	0	0	0.7457100153	92.97660065	87.89448547	112.8173676	1.0
43	0	0	0.7457100153	81.03527832	87.89022827	101.3390961	1.0
44	0	0	0.7457100153	80.39807129	87.87043762	100.9406357	1.0
45	0	0	0.7457100153	79.7118988	87.93087769	100.2941437	1.0
46	0	0	0.7457100153	75.73213196	88.17700958	96.1043396	1.0
[Spine1]
39	0	0	2.140589952	11.43070889	5.434807777	0.8554114103	1.0
40	0	0	2.140589952	11.63150787	5.026218891	0.6665335298	1.0
41	0	0	2.140589952	12.07636452	4.598011971	1.165414691	1.0
42	0	0	2.140589952	12.92096519	4.734342098	1.260164142	1.0
43	0	0	2.140589952	13.75780869	4.413813114	1.274662971	1.0
44	0	0	2.140589952	13.9995966	3.999821186	1.237636447	1.0
45	0	0	2.140589952	14.08444881	3.771439552	1.190255046	1.0
46	0	0	2.140589952	13.85949898	3.252494574	1.031175375	1.0
[Neck]
39	0	0	2.32246995	-57.27159882	70.27987671	-62.27983093	1.0
40	0	0	2.32246995	-57.55347443	70.07576752	-63.23774338	1.0
41	0	0	2.32246995	-58.06140518	70.68454742	-65.2048645	1.0
42	0	0	2.32246995	-57.62461853	70.80646515	-64.12838745	1.0
43	0	0	2.32246995	-57.91959381	71.36840057	-64.73995972	1.0
44	0	0	2.32246995	-58.65449905	71.88887787	-65.99452972	1.0
45	0	0	2.32246995	-59.38843918	72.27218628	-66.65638733	1.0
46	0	0	2.32246995	-59.88986206	73.09710693	-67.75021362	1.0
[Head]
39	0	-0.1818799973	1.409579992	90.27279663	114.5521851	100.1364136	1.0
40	0	-0.1818799973	1.409579992	87.58843994	114.6306152	97.41104889	1.0
41	0	-0.1818799973	1.409579992	91.35773468	114.6376572	102.7519913	1.0
42	0	-0.1818799973	1.409579992	88.92758942	114.1789932	99.7967453	1.0
43	0	-0.1818799973	1.409579992	86.0430069	113.5512695	97.44444275	1.0
44	0	-0.1818799973	1.409579992	85.64837646	113.2353592	97.73265839	1.0
45	0	-0.1818799973	1.409579992	85.58068085	113.015976	97.0606308	1.0
46	0	-0.1818799973	1.409579992	85.10449982	112.3716354	96.94025421	1.0
[LeftShoulder]
39	0.3668199778	0.02662999928	1.946700096	-11.6745224	-5.69516325	-10.39353657	1.0
40	0.3668199778	0.02662999928	1.946700096	-11.67574692	-5.300981045	-10.66464233	1.0
41	0.3668199778	0.02662999928	1.946700096	-11.08846188	-5.269867897	-9.750392914	1.0
42	0.3668199778	0.02662999928	1.946700096	-11.07543755	-5.17072773	-9.19144249	1.0
43	0.3668199778	0.02662999928	1.946700096	-10.51834774	-4.746621132	-8.63202858	1.0
44	0.3668199778	0.02662999928	1.946700096	-10.20199776	-4.753854275	-8.274007797	1.0
45	0.3668199778	0.02662999928	1.946700096	-10.19566822	-4.724917412	-8.293960571	1.0
46	0.3668199778	0.02662999928	1.946700096	-10.21861458	-4.514345646	-8.500066757	1.0
[LeftArm]
39	1.140689969	0	0	73.28474426	79.00724792	25.44468307	1.0
40	1.140689969	0	0	74.60478973	78.44172668	28.31188202	1.0
41	1.140689969	0	0	72.61036682	78.06322479	29.74848747	1.0
42	1.140689969	0	0	73.39815521	77.55671692	32.7021637	1.0
43	1.140689969	0	0	72.58427429	77.43370819	34.60033417	1.0
44	1.140689969	0	0	73.14502716	77.82392883	35.69666672	1.0
45	1.140689969	0	0	73.93881989	77.90045929	36.28621674	1.0
46	1.140689969	0	0	74.00187683	77.57390594	36.01663971	1.0
[LeftForeArm]
39	2.749800205	0	0	-1.953681231	11.70841789	-17.88199234	1.0
40	2.749800205	0	0	-3.374033689	11.3298111	-17.29262733	1.0
41	2.749800205	0	0	-3.59796977	10.05063438	-16.91954422	1.0
42	2.749800205	0	0	-5.046274185	8.628991127	-17.52172852	1.0
43	2.749800205	0	0	-8.186315536	7.106690884	-17.08512878	1.0
44	2.749800205	0	0	-9.48958683	6.324124813	-16.12372017	1.0
45	2.749800205	0	0	-9.778668404	6.115756989	-15.23959541	1.0
46	2.749800205	0	0	-9.391427994	6.49083519	-13.47322845	1.0
[LeftHand]
39	2.295179844	0	0	-0.5088434219	5.438004494	-8.603689194	1.0
40	2.295179844	0	0	-2.09010911	6.512322426	-7.81454134	1.0
41	2.295179844	0	0	-2.361805677	3.922538519	-7.685630798	1.0
42	2.295179844	0	0	-3.949906826	3.443893433	-7.873026848	1.0
43	2.295179844	0	0	-7.224722385	1.610980511	-7.596431732	1.0
44	2.295179844	0	0	-8.598957062	0.113743715	-6.95015049	1.0
45	2.295179844	0	0	-8.949152946	-0.1627365649	-6.855405331	1.0
46	2.295179844	0	0	-8.606684685	-0.3492045999	-5.763833046	1.0
[RightShoulder]
39	-0.3601199985	0.02662999928	1.946700096	-9.321424484	1.083266616	-172.5038757	1.0
40	-0.3601199985	0.02662999928	1.946700096	-9.037572861	1.194256067	-172.9246216	1.0
41	-0.3601199985	0.02662999928	1.946700096	-8.041749954	0.4377160966	-172.438858	1.0
42	-0.3601199985	0.02662999928	1.946700096	-8.304315567	0.5209729671	-172.4310608	1.0
43	-0.3601199985	0.02662999928	1.946700096	-8.274591446	0.2903414965	-172.0694733	1.0
44	-0.3601199985	0.02662999928	1.946700096	-7.948883533	0.1370488554	-171.9978638	1.0
45	-0.3601199985	0.02662999928	1.946700096	-8.019414902	0.1293000728	-172.0097809	1.0
46	-0.3601199985	0.02662999928	1.946700096	-8.485286713	0.2800220549	-172.0024872	1.0
[RightArm]
39	-1.140689969	0	0	-109.9726105	-99.0185318	-16.74713516	1.0
40	-1.140689969	0	0	-107.4260712	-99.65122986	-22.34536171	1.0
41	-1.140689969	0	0	-106.0027847	-100.2608795	-26.66395569	1.0
42	-1.140689969	0	0	-104.5553741	-100.2960587	-28.22538567	1.0
43	-1.140689969	0	0	-105.4762421	-100.4219055	-27.16275787	1.0
44	-1.140689969	0	0	-107.9936218	-100.2022552	-24.1610527	1.0
45	-1.140689969	0	0	-107.1833954	-100.0866241	-24.67016602	1.0
46	-1.140689969	0	0	-103.4632874	-99.81402588	-27.68050003	1.0
[RightForeArm]
39	-2.749800205	0	0	3.972939014	-6.286575317	-160.3022156	1.0
40	-2.749800205	0	0	4.25774765	-6.627881527	-161.0188293	1.0
41	-2.749800205	0	0	2.47286582	-4.552810192	-162.1348267	1.0
42	-2.749800205	0	0	2.840302944	-4.003426075	-162.3148804	1.0
43	-2.749800205	0	0	2.994539261	-2.80044198	-162.6142273	1.0
44	-2.749800205	0	0	2.92615819	-2.236736298	-163.0722961	1.0
45	-2.749800205	0	0	2.657757759	-1.783003211	-163.1360168	1.0
46	-2.749800205	0	0	2.277805328	-0.9813609123	-163.2042389	1.0
[RightHand]
39	-2.295179844	0	0	4.931847572	-1.2196064	-168.4397888	1.0
40	-2.295179844	0	0	5.3890872	0.2267798781	-169.3275604	1.0
41	-2.295179844	0	0	3.259500742	0.7608612776	-169.4759979	1.0
42	-2.295179844	0	0	3.550707102	0.9835813046	-169.8377228	1.0
43	-2.295179844	0	0	3.645807028	2.574975491	-170.1669312	1.0
44	-2.295179844	0	0	3.526479244	3.093534231	-170.1320496	1.0
45	-2.295179844	0	0	3.212180376	3.438662052	-170.3715363	1.0
46	-2.295179844	0	0	2.742001295	3.90312171	-170.6546936	1.0
[LeftUpLeg]
39	0.9094099998	0	0	248.875824	-80.00511932	-253.7234802	1.0
40	0.9094099998	0	0	247.2766113	-80.56546021	-252.5995026	1.0
41	0.9094099998	0	0	257.2176514	-73.54270172	-262.1708679	1.0
42	0.9094099998	0	0	255.986145	-75.14154053	-259.2960815	1.0
43	0.9094099998	0	0	255.5740662	-76.37572479	-257.9813232	1.0
44	0.9094099998	0	0	256.3617249	-76.12545013	-258.2842407	1.0
45	0.9094099998	0	0	256.9154053	-75.55233765	-258.414917	1.0
46	0.9094099998	0	0	257.8831177	-73.83389282	-258.7948914	1.0
[LeftLeg]
39	0	0	-4.498080254	-76.02258301	-83.27822876	75.06455231	1.0
40	0	0	-4.498080254	-72.27987671	-83.54872131	72.56655884	1.0
41	0	0	-4.498080254	-63.28286362	-86.2800827	64.23429871	1.0
42	0	0	-4.498080254	-65.46028137	-84.88414001	66.04283905	1.0
43	0	0	-4.498080254	-72.29803467	-82.99308014	73.04264832	1.0
44	0	0	-4.498080254	-73.02107239	-82.51309204	73.69071198	1.0
45	0	0	-4.498080254	-72.4549408	-82.50009918	73.00495911	1.0
46	0	0	-4.498080254	-70.53669739	-82.97546387	71.16391754	1.0
[LeftFoot]
39	0	0	-3.729400158	-54.51017761	-20.44302177	110.0874176	1.0
40	0	0	-3.729400158	-54.45983124	-19.42844391	110.2594757	1.0
41	0	0	-3.729400158	-54.07202148	-19.58954811	108.4592896	1.0
42	0	0	-3.729400158	-54.30254364	-19.05697441	109.8318253	1.0
43	0	0	-3.729400158	-54.47407913	-18.51945496	110.7862244	1.0
44	0	0	-3.729400158	-54.27587128	-18.23154259	111.0327988	1.0
45	0	0	-3.729400158	-54.11611557	-18.17901611	111.0034332	1.0
46	0	0	-3.729400158	-54.79943085	-18.94652939	111.7093582	1.0
[LeftToeBase]
39	0	-1.364109993	-0.5911099911	-9.999999975e-007	0	0	1.0
40	0	-1.364109993	-0.5911099911	-9.999999975e-007	0	0	1.0
41	0	-1.364109993	-0.5911099911	-9.999999975e-007	0	0	1.0
42	0	-1.364109993	-0.5911099911	-9.999999975e-007	0	0	1.0
43	0	-1.364109993	-0.5911099911	-9.999999975e-007	0	0	1.0
44	0	-1.364109993	-0.5911099911	-9.999999975e-007	0	0	1.0
45	0	-1.364109993	-0.5911099911	-9.999999975e-007	0	0	1.0
46	0	-1.364109993	-0.5911099911	-9.999999975e-007	0	0	1.0
[RightUpLeg]
39	-0.9094099998	0	0	98.60206604	-71.57530212	-99.07489014	1.0
40	-0.9094099998	0	0	97.24428558	-71.4120636	-97.6726532	1.0
41	-0.9094099998	0	0	98.26242065	-70.68166351	-99.2405014	1.0
42	-0.9094099998	0	0	97.16757202	-70.63166809	-96.97898102	1.0
43	-0.9094099998	0	0	96.75608063	-73.46082306	-96.28158569	1.0
44	-0.9094099998	0	0	96.96170807	-75.35635376	-96.4276886	1.0
45	-0.9094099998	0	0	97.05712891	-76.10015106	-96.26826477	1.0
46	-0.9094099998	0	0	97.35676575	-76.55462646	-96.22190857	1.0
[RightLeg]
39	0	0	-4.498080254	-83.85336304	-102.0906601	82.28494263	1.0
40	0	0	-4.498080254	-79.88265991	-101.7121887	78.74694824	1.0
41	0	0	-4.498080254	-87.51118469	-100.3095016	87.4641571	1.0
42	0	0	-4.498080254	-85.28264618	-99.38738251	85.17403412	1.0
43	0	0	-4.498080254	-83.50390625	-99.48704529	83.77394104	1.0
44	0	0	-4.498080254	-83.89341736	-99.84423065	84.25431061	1.0
45	0	0	-4.498080254	-83.69504547	-99.91087341	83.96776581	1.0
46	0	0	-4.498080254	-83.14103699	-99.32098389	83.45330048	1.0
[RightFoot]
39	0	0	-3.729400158	-38.97306061	-30.08291626	89.59949493	1.0
40	0	0	-3.729400158	-38.87362671	-29.96816444	88.60748291	1.0
41	0	0	-3.729400158	-41.07926559	-28.96924591	90.89904022	1.0
42	0	0	-3.729400158	-41.21902466	-28.71359634	90.81039429	1.0
43	0	0	-3.729400158	-41.4668808	-28.54228592	89.92991638	1.0
44	0	0	-3.729400158	-41.3539772	-28.34801483	89.22325134	1.0
45	0	0	-3.729400158	-41.11180496	-28.34321404	89.35289764	1.0
46	0	0	-3.729400158	-41.43918991	-27.99861336	89.29664612	1.0
[RightToeBase]
39	0	-1.364109993	-0.5911099911	3.000000106e-006	9.999999975e-007	9.999999975e-007	1.0
40	0	-1.364109993	-0.5911099911	3.000000106e-006	9.999999975e-007	9.999999975e-007	1.0
41	0	-1.364109993	-0.5911099911	3.000000106e-006	9.999999975e-007	9.999999975e-007	1.0
42	0	-1.364109993	-0.5911099911	3.000000106e-006	9.999999975e-007	9.999999975e-007	1.0
43	0	-1.364109993	-0.5911099911	3.000000106e-006	9.999999975e-007	9.999999975e-007	1.0
44	0	-1.364109993	-0.5911099911	3.000000106e-006	9.999999975e-007	9.999999975e-007	1.0
45	0	-1.364109993	-0.5911099911	3.000000106e-006	9.999999975e-007	9.999999975e-007	1.0
46	0	-1.364109993	-0.5911099911	3.000000106e-006	9.999999975e-007	9.999999975e-007	1.0
[EndOfFile]
